<svg width="32" height="32" viewBox="0 0 32 32" fill="none" xmlns="http://www.w3.org/2000/svg">
<path d="M4.64625 16.3538L13.6463 25.3538C13.7401 25.4476 13.8673 25.5003 14 25.5003C14.1327 25.5003 14.2599 25.4476 14.3538 25.3538C14.4476 25.2599 14.5003 25.1327 14.5003 25C14.5003 24.8673 14.4476 24.7401 14.3538 24.6463L6.2075 16.5H27C27.1326 16.5 27.2598 16.4473 27.3536 16.3536C27.4473 16.2598 27.5 16.1326 27.5 16C27.5 15.8674 27.4473 15.7402 27.3536 15.6465C27.2598 15.5527 27.1326 15.5 27 15.5H6.2075L14.3538 7.35375C14.4476 7.25993 14.5003 7.13269 14.5003 7C14.5003 6.86732 14.4476 6.74007 14.3538 6.64625C14.2599 6.55243 14.1327 6.49973 14 6.49973C13.8673 6.49973 13.7401 6.55243 13.6463 6.64625L4.64625 15.6463C4.59976 15.6927 4.56288 15.7478 4.53772 15.8085C4.51256 15.8692 4.49961 15.9343 4.49961 16C4.49961 16.0657 4.51256 16.1308 4.53772 16.1915C4.56288 16.2522 4.59976 16.3073 4.64625 16.3538Z" fill="white"/>
</svg>
