<svg width="40" height="36" viewBox="0 0 40 36" fill="none" xmlns="http://www.w3.org/2000/svg">
<rect width="40" height="36" fill="#F9F2E6"/>
<path d="M19.3598 26.6404L12.6098 19.8904C12.5395 19.82 12.4999 19.7246 12.4999 19.6251C12.4999 19.5255 12.5395 19.4301 12.6098 19.3597C12.6802 19.2894 12.7756 19.2499 12.8752 19.2499C12.9747 19.2499 13.0701 19.2894 13.1405 19.3597L19.2502 25.4694L19.2502 9.87506C19.2502 9.7756 19.2897 9.68022 19.36 9.6099C19.4303 9.53957 19.5257 9.50006 19.6252 9.50006C19.7246 9.50006 19.82 9.53957 19.8903 9.6099C19.9606 9.68022 20.0002 9.7756 20.0002 9.87506L20.0002 25.4694L26.1098 19.3597C26.1802 19.2894 26.2756 19.2499 26.3752 19.2499C26.4747 19.2499 26.5701 19.2894 26.6405 19.3597C26.7108 19.4301 26.7504 19.5255 26.7504 19.6251C26.7504 19.7246 26.7108 19.82 26.6405 19.8904L19.8905 26.6404C19.8556 26.6752 19.8143 26.7029 19.7688 26.7218C19.7232 26.7406 19.6744 26.7504 19.6252 26.7504C19.5759 26.7504 19.5271 26.7406 19.4816 26.7218C19.436 26.7029 19.3947 26.6752 19.3598 26.6404Z" fill="#D2AC76"/>
</svg>
