<svg width="11" height="11" viewBox="0 0 11 11" fill="none" xmlns="http://www.w3.org/2000/svg">
<path d="M10.0156 1.25V8.15625C10.0156 8.2267 9.98764 8.29426 9.93782 8.34408C9.88801 8.39389 9.82045 8.42188 9.75 8.42188C9.67955 8.42188 9.61199 8.39389 9.56217 8.34408C9.51236 8.29426 9.48437 8.2267 9.48437 8.15625V1.89148L1.43793 9.93793C1.38809 9.98777 1.32049 10.0158 1.25 10.0158C1.17951 10.0158 1.11191 9.98777 1.06207 9.93793C1.01223 9.88809 0.984226 9.82049 0.984226 9.75C0.984226 9.67951 1.01223 9.61191 1.06207 9.56207L9.10851 1.51562H2.84375C2.7733 1.51562 2.70574 1.48764 2.65592 1.43783C2.60611 1.38801 2.57812 1.32045 2.57812 1.25C2.57812 1.17955 2.60611 1.11199 2.65592 1.06217C2.70574 1.01236 2.7733 0.984375 2.84375 0.984375H9.75C9.82045 0.984375 9.88801 1.01236 9.93782 1.06217C9.98764 1.11199 10.0156 1.17955 10.0156 1.25Z" fill="black"/>
</svg>
