<svg width="32" height="32" viewBox="0 0 32 32" fill="none" xmlns="http://www.w3.org/2000/svg">
<rect x="0.5" y="0.5" width="31" height="31" rx="15.5" stroke="#22324C" stroke-opacity="0.39"/>
<path d="M21.9235 16.1862L17.2279 20.9229C17.179 20.9723 17.1126 21 17.0434 21C16.9741 21 16.9077 20.9723 16.8588 20.9229C16.8098 20.8735 16.7823 20.8065 16.7823 20.7367C16.7823 20.6669 16.8098 20.5999 16.8588 20.5505L21.1089 16.2632H10.2609C10.1917 16.2632 10.1253 16.2354 10.0764 16.1861C10.0275 16.1367 10 16.0698 10 16C10 15.9302 10.0275 15.8633 10.0764 15.8139C10.1253 15.7646 10.1917 15.7368 10.2609 15.7368H21.1089L16.8588 11.4495C16.8098 11.4001 16.7823 11.3331 16.7823 11.2633C16.7823 11.1935 16.8098 11.1265 16.8588 11.0771C16.9077 11.0277 16.9741 11 17.0434 11C17.1126 11 17.179 11.0277 17.2279 11.0771L21.9235 15.8138C21.9477 15.8383 21.967 15.8673 21.9801 15.8992C21.9932 15.9312 22 15.9654 22 16C22 16.0346 21.9932 16.0688 21.9801 16.1008C21.967 16.1327 21.9477 16.1617 21.9235 16.1862Z" fill="#22324C"/>
</svg>
