<svg width="24" height="20" viewBox="0 0 24 20" fill="none" xmlns="http://www.w3.org/2000/svg">
<path d="M0.646252 10.3537L9.64625 19.3537C9.74007 19.4475 9.86732 19.5003 10 19.5003C10.1327 19.5003 10.2599 19.4475 10.3538 19.3537C10.4476 19.2599 10.5003 19.1327 10.5003 19C10.5003 18.8673 10.4476 18.74 10.3538 18.6462L2.2075 10.5H23C23.1326 10.5 23.2598 10.4473 23.3536 10.3535C23.4473 10.2598 23.5 10.1326 23.5 9.99997C23.5 9.86736 23.4473 9.74019 23.3536 9.64642C23.2598 9.55265 23.1326 9.49997 23 9.49997H2.2075L10.3538 1.35372C10.4476 1.2599 10.5003 1.13265 10.5003 0.999973C10.5003 0.867291 10.4476 0.740043 10.3538 0.646223C10.2599 0.552403 10.1327 0.499695 10 0.499695C9.86732 0.499695 9.74007 0.552402 9.64625 0.646223L0.646252 9.64622C0.599762 9.69266 0.562883 9.7478 0.537722 9.8085C0.51256 9.8692 0.499609 9.93427 0.499609 9.99997C0.499609 10.0657 0.51256 10.1307 0.537722 10.1914C0.562883 10.2521 0.599762 10.3073 0.646252 10.3537Z" fill="white"/>
</svg>
