<svg width="24" height="20" viewBox="0 0 24 20" fill="none" xmlns="http://www.w3.org/2000/svg">
<path d="M23.3537 10.3537L14.3537 19.3537C14.2599 19.4475 14.1327 19.5003 14 19.5003C13.8673 19.5003 13.7401 19.4475 13.6462 19.3537C13.5524 19.2599 13.4997 19.1327 13.4997 19C13.4997 18.8673 13.5524 18.74 13.6462 18.6462L21.7925 10.5H1C0.867392 10.5 0.740215 10.4473 0.646447 10.3535C0.552679 10.2598 0.5 10.1326 0.5 9.99997C0.5 9.86736 0.552679 9.74019 0.646447 9.64642C0.740215 9.55265 0.867392 9.49997 1 9.49997H21.7925L13.6462 1.35372C13.5524 1.2599 13.4997 1.13265 13.4997 0.999973C13.4997 0.867291 13.5524 0.740043 13.6462 0.646223C13.7401 0.552403 13.8673 0.499695 14 0.499695C14.1327 0.499695 14.2599 0.552402 14.3537 0.646223L23.3537 9.64622C23.4002 9.69266 23.4371 9.7478 23.4623 9.8085C23.4874 9.8692 23.5004 9.93427 23.5004 9.99997C23.5004 10.0657 23.4874 10.1307 23.4623 10.1914C23.4371 10.2521 23.4002 10.3073 23.3537 10.3537Z" fill="white"/>
</svg>
