<svg width="9" height="9" viewBox="0 0 9 9" fill="none" xmlns="http://www.w3.org/2000/svg">
<path d="M8.25 8.48438L2.15625 8.48438C2.09409 8.48438 2.03448 8.45968 1.99052 8.41573C1.94657 8.37178 1.92188 8.31216 1.92188 8.25C1.92188 8.18784 1.94657 8.12823 1.99052 8.08427C2.03448 8.04032 2.09409 8.01563 2.15625 8.01563L7.68398 8.01563L0.584179 0.915821C0.540201 0.871842 0.515494 0.812195 0.515494 0.75C0.515494 0.687806 0.540201 0.628158 0.584179 0.58418C0.628158 0.540202 0.687805 0.515495 0.75 0.515495C0.812195 0.515495 0.871842 0.540202 0.915821 0.58418L8.01562 7.68399V2.15625C8.01562 2.09409 8.04032 2.03448 8.08427 1.99052C8.12823 1.94657 8.18784 1.92188 8.25 1.92188C8.31216 1.92188 8.37177 1.94657 8.41573 1.99052C8.45968 2.03448 8.48438 2.09409 8.48438 2.15625V8.25C8.48438 8.31216 8.45968 8.37178 8.41573 8.41573C8.37177 8.45968 8.31216 8.48438 8.25 8.48438Z" fill="black"/>
</svg>
