<svg width="18" height="15" viewBox="0 0 18 15" fill="none" xmlns="http://www.w3.org/2000/svg">
<path d="M17.1403 7.39052L10.3903 14.1405C10.3199 14.2109 10.2245 14.2504 10.125 14.2504C10.0255 14.2504 9.93005 14.2109 9.85969 14.1405C9.78932 14.0702 9.74979 13.9747 9.74979 13.8752C9.74979 13.7757 9.78932 13.6803 9.85969 13.6099L15.9694 7.50021H0.375C0.275544 7.50021 0.180161 7.4607 0.109835 7.39037C0.0395089 7.32005 0 7.22467 0 7.12521C0 7.02575 0.0395089 6.93037 0.109835 6.86004C0.180161 6.78972 0.275544 6.75021 0.375 6.75021H15.9694L9.85969 0.640521C9.78932 0.570156 9.74979 0.47472 9.74979 0.375208C9.74979 0.275697 9.78932 0.180261 9.85969 0.109896C9.93005 0.0395309 10.0255 1.96161e-09 10.125 0C10.2245 -1.96161e-09 10.3199 0.0395306 10.3903 0.109896L17.1403 6.8599C17.1752 6.89472 17.2028 6.93608 17.2217 6.98161C17.2406 7.02713 17.2503 7.07593 17.2503 7.12521C17.2503 7.17449 17.2406 7.22329 17.2217 7.26881C17.2028 7.31434 17.1752 7.35569 17.1403 7.39052Z" fill="#14506A"/>
</svg>
