<svg width="11" height="11" viewBox="0 0 11 11" fill="none" xmlns="http://www.w3.org/2000/svg">
<path d="M10.5474 0.75V8.46875C10.5474 8.54749 10.5161 8.623 10.4605 8.67867C10.4048 8.73435 10.3293 8.76562 10.2505 8.76562C10.1718 8.76562 10.0963 8.73435 10.0406 8.67867C9.98493 8.623 9.95366 8.54749 9.95366 8.46875V1.46695L0.96057 10.46C0.904865 10.5157 0.829311 10.547 0.750531 10.547C0.671751 10.547 0.596198 10.5157 0.540492 10.46C0.484787 10.4043 0.453491 10.3288 0.453491 10.25C0.453491 10.1712 0.484786 10.0957 0.540492 10.04L9.53358 1.04688H2.53178C2.45305 1.04688 2.37753 1.0156 2.32186 0.959923C2.26618 0.904248 2.23491 0.828736 2.23491 0.75C2.23491 0.671264 2.26618 0.595753 2.32186 0.540078C2.37753 0.484403 2.45305 0.453125 2.53178 0.453125H10.2505C10.3293 0.453125 10.4048 0.484403 10.4605 0.540078C10.5161 0.595753 10.5474 0.671264 10.5474 0.75Z" fill="#14506A"/>
</svg>
