<svg width="22" height="18" viewBox="0 0 22 18" fill="none" xmlns="http://www.w3.org/2000/svg">
<path d="M20.68 0H1.32C0.969914 0 0.634167 0.135459 0.386619 0.376577C0.139071 0.617695 0 0.944722 0 1.28571V16.7143C0 17.0553 0.139071 17.3823 0.386619 17.6234C0.634167 17.8645 0.969914 18 1.32 18H20.68C21.0301 18 21.3658 17.8645 21.6134 17.6234C21.8609 17.3823 22 17.0553 22 16.7143V1.28571C22 0.944722 21.8609 0.617695 21.6134 0.376577C21.3658 0.135459 21.0301 0 20.68 0ZM1.32 0.857143H20.68C20.7967 0.857143 20.9086 0.902296 20.9911 0.982669C21.0736 1.06304 21.12 1.17205 21.12 1.28571V13.3286L17.5021 9.80464C17.3795 9.68478 17.2337 9.58968 17.0733 9.52478C16.9129 9.45989 16.7408 9.42649 16.5671 9.42649C16.3934 9.42649 16.2213 9.45989 16.0609 9.52478C15.9005 9.58968 15.7547 9.68478 15.6321 9.80464L13.1208 12.2507L7.9706 7.23321C7.84797 7.11335 7.70225 7.01825 7.5418 6.95335C7.38135 6.88846 7.20933 6.85506 7.0356 6.85506C6.86187 6.85506 6.68985 6.88846 6.5294 6.95335C6.36895 7.01825 6.22323 7.11335 6.1006 7.23321L0.88 12.3214V1.28571C0.88 1.17205 0.926357 1.06304 1.00887 0.982669C1.09139 0.902296 1.2033 0.857143 1.32 0.857143ZM0.88 16.7143V13.5364L6.7287 7.83964C6.76956 7.7998 6.81809 7.76818 6.87151 7.74662C6.92492 7.72505 6.98218 7.71395 7.04 7.71395C7.09782 7.71395 7.15508 7.72505 7.20849 7.74662C7.26191 7.76818 7.31044 7.7998 7.3513 7.83964L16.9026 17.1429H1.32C1.2033 17.1429 1.09139 17.0977 1.00887 17.0173C0.926357 16.937 0.88 16.8279 0.88 16.7143ZM20.68 17.1429H18.15L13.75 12.8571L16.2613 10.4111C16.3022 10.3712 16.3507 10.3396 16.4041 10.318C16.4575 10.2965 16.5148 10.2854 16.5726 10.2854C16.6304 10.2854 16.6877 10.2965 16.7411 10.318C16.7945 10.3396 16.843 10.3712 16.8839 10.4111L21.12 14.5404V16.7143C21.12 16.8279 21.0736 16.937 20.9911 17.0173C20.9086 17.0977 20.7967 17.1429 20.68 17.1429ZM13.2 6C13.2 5.83047 13.2516 5.66475 13.3483 5.5238C13.445 5.38284 13.5824 5.27298 13.7432 5.2081C13.904 5.14323 14.081 5.12625 14.2517 5.15933C14.4224 5.1924 14.5792 5.27403 14.7023 5.39391C14.8253 5.51378 14.9091 5.66651 14.9431 5.83278C14.977 5.99905 14.9596 6.17139 14.893 6.32801C14.8264 6.48464 14.7136 6.6185 14.5689 6.71269C14.4242 6.80687 14.254 6.85714 14.08 6.85714C13.8466 6.85714 13.6228 6.76684 13.4577 6.60609C13.2927 6.44535 13.2 6.22733 13.2 6Z" fill="white"/>
</svg>
