<svg width="22" height="18" viewBox="0 0 22 18" fill="none" xmlns="http://www.w3.org/2000/svg">
<path d="M22 0.428571V4.71429C22 4.82795 21.9536 4.93696 21.8711 5.01733C21.7886 5.0977 21.6767 5.14286 21.56 5.14286C21.4433 5.14286 21.3314 5.0977 21.2489 5.01733C21.1664 4.93696 21.12 4.82795 21.12 4.71429V0.857143H17.16C17.0433 0.857143 16.9314 0.81199 16.8489 0.731617C16.7664 0.651244 16.72 0.542236 16.72 0.428571C16.72 0.314907 16.7664 0.205898 16.8489 0.125526C16.9314 0.045153 17.0433 0 17.16 0H21.56C21.6767 0 21.7886 0.045153 21.8711 0.125526C21.9536 0.205898 22 0.314907 22 0.428571ZM4.84 17.1429H0.88V13.2857C0.88 13.1721 0.833643 13.063 0.751127 12.9827C0.668611 12.9023 0.556695 12.8571 0.44 12.8571C0.323305 12.8571 0.211389 12.9023 0.128873 12.9827C0.0463571 13.063 0 13.1721 0 13.2857V17.5714C0 17.6851 0.0463571 17.7941 0.128873 17.8745C0.211389 17.9548 0.323305 18 0.44 18H4.84C4.9567 18 5.06861 17.9548 5.15113 17.8745C5.23364 17.7941 5.28 17.6851 5.28 17.5714C5.28 17.4578 5.23364 17.3488 5.15113 17.2684C5.06861 17.188 4.9567 17.1429 4.84 17.1429ZM21.56 12.8571C21.4433 12.8571 21.3314 12.9023 21.2489 12.9827C21.1664 13.063 21.12 13.1721 21.12 13.2857V17.1429H17.16C17.0433 17.1429 16.9314 17.188 16.8489 17.2684C16.7664 17.3488 16.72 17.4578 16.72 17.5714C16.72 17.6851 16.7664 17.7941 16.8489 17.8745C16.9314 17.9548 17.0433 18 17.16 18H21.56C21.6767 18 21.7886 17.9548 21.8711 17.8745C21.9536 17.7941 22 17.6851 22 17.5714V13.2857C22 13.1721 21.9536 13.063 21.8711 12.9827C21.7886 12.9023 21.6767 12.8571 21.56 12.8571ZM0.44 5.14286C0.556695 5.14286 0.668611 5.0977 0.751127 5.01733C0.833643 4.93696 0.88 4.82795 0.88 4.71429V0.857143H4.84C4.9567 0.857143 5.06861 0.81199 5.15113 0.731617C5.23364 0.651244 5.28 0.542236 5.28 0.428571C5.28 0.314907 5.23364 0.205898 5.15113 0.125526C5.06861 0.045153 4.9567 0 4.84 0H0.44C0.323305 0 0.211389 0.045153 0.128873 0.125526C0.0463571 0.205898 0 0.314907 0 0.428571V4.71429C0 4.82795 0.0463571 4.93696 0.128873 5.01733C0.211389 5.0977 0.323305 5.14286 0.44 5.14286ZM17.38 12.8004L11.22 16.2289C11.1531 16.2665 11.0772 16.2863 11 16.2863C10.9228 16.2863 10.8469 16.2665 10.78 16.2289L4.62 12.8004C4.55302 12.7627 4.49741 12.7085 4.45879 12.6432C4.42016 12.5779 4.39989 12.5039 4.4 12.4286V5.57143C4.39989 5.49609 4.42016 5.42206 4.45879 5.35678C4.49741 5.29151 4.55302 5.23731 4.62 5.19964L10.78 1.77107C10.8469 1.73346 10.9228 1.71365 11 1.71365C11.0772 1.71365 11.1531 1.73346 11.22 1.77107L17.38 5.19964C17.447 5.23731 17.5026 5.29151 17.5412 5.35678C17.5798 5.42206 17.6001 5.49609 17.6 5.57143V12.4286C17.6001 12.5039 17.5798 12.5779 17.5412 12.6432C17.5026 12.7085 17.447 12.7627 17.38 12.8004ZM5.7266 5.57143L11 8.50607L16.2734 5.57143L11 2.63679L5.7266 5.57143ZM5.28 12.18L10.56 15.1189V9.24857L5.28 6.30964V12.18ZM16.72 12.18V6.30964L11.44 9.24857V15.1189L16.72 12.18Z" fill="white"/>
</svg>
