<svg width="11" height="11" viewBox="0 0 11 11" fill="none" xmlns="http://www.w3.org/2000/svg">
<path d="M0.984227 1.25V8.15625C0.984227 8.2267 1.01221 8.29426 1.06203 8.34408C1.11184 8.39389 1.1794 8.42188 1.24985 8.42188C1.3203 8.42188 1.38786 8.39389 1.43768 8.34408C1.48749 8.29426 1.51548 8.2267 1.51548 8.15625V1.89148L9.56192 9.93793C9.61176 9.98777 9.67937 10.0158 9.74985 10.0158C9.82034 10.0158 9.88794 9.98777 9.93778 9.93793C9.98762 9.88809 10.0156 9.82049 10.0156 9.75C10.0156 9.67951 9.98762 9.61191 9.93778 9.56207L1.89134 1.51562H8.1561C8.22655 1.51562 8.29411 1.48764 8.34393 1.43783C8.39374 1.38801 8.42173 1.32045 8.42173 1.25C8.42173 1.17955 8.39374 1.11199 8.34393 1.06217C8.29411 1.01236 8.22655 0.984375 8.1561 0.984375H1.24985C1.1794 0.984375 1.11184 1.01236 1.06203 1.06217C1.01221 1.11199 0.984227 1.17955 0.984227 1.25Z" fill="black"/>
</svg>
