<svg width="20" height="20" viewBox="0 0 20 20" fill="none" xmlns="http://www.w3.org/2000/svg">
<path d="M8.54902 18.75C9.48846 18.75 10.25 17.9884 10.25 17.049C10.25 16.1096 9.48846 15.348 8.54902 15.348C7.60959 15.348 6.84802 16.1096 6.84802 17.049C6.84802 17.9884 7.60959 18.75 8.54902 18.75Z" stroke="#FAF7F4" stroke-width="1.5" stroke-linecap="round" stroke-linejoin="round"/>
<path d="M15.96 18.75C16.8995 18.75 17.661 17.9884 17.661 17.049C17.661 16.1096 16.8995 15.348 15.96 15.348C15.0206 15.348 14.259 16.1096 14.259 17.049C14.259 17.9884 15.0206 18.75 15.96 18.75Z" stroke="#FAF7F4" stroke-width="1.5" stroke-linecap="round" stroke-linejoin="round"/>
<path d="M4.606 3.555L6.616 9.919C6.925 10.897 7.079 11.386 7.376 11.748C7.636 12.068 7.975 12.315 8.358 12.468C8.793 12.641 9.305 12.641 10.331 12.641H14.186C15.212 12.641 15.724 12.641 16.158 12.468C16.542 12.315 16.88 12.068 17.141 11.748C17.437 11.386 17.591 10.897 17.901 9.919L18.31 8.623L18.55 7.857L18.881 6.807C18.9991 6.4325 19.0274 6.03544 18.9634 5.648C18.8995 5.26055 18.7452 4.89361 18.513 4.57691C18.2809 4.26021 17.9774 4.00266 17.6271 3.82511C17.2768 3.64757 16.8897 3.55503 16.497 3.555H4.606ZM4.606 3.555L4.595 3.518C4.55277 3.37656 4.50608 3.23649 4.455 3.098C4.25255 2.58554 3.90923 2.14082 3.46473 1.81523C3.02022 1.48963 2.49266 1.29645 1.943 1.258C1.84 1.25 1.727 1.25 1.5 1.25" stroke="#FAF7F4" stroke-width="1.5" stroke-linecap="round" stroke-linejoin="round"/>
</svg>
