<svg width="16" height="16" viewBox="0 0 16 16" fill="none" xmlns="http://www.w3.org/2000/svg">
<path d="M15.5 10.087V15.6522C15.5 15.7444 15.4656 15.8329 15.4045 15.8981C15.3433 15.9634 15.2604 16 15.1739 16H0.826087C0.739603 16 0.656662 15.9634 0.595509 15.8981C0.534356 15.8329 0.5 15.7444 0.5 15.6522V10.087C0.5 9.99471 0.534356 9.90624 0.595509 9.84101C0.656662 9.77578 0.739603 9.73913 0.826087 9.73913C0.912571 9.73913 0.995512 9.77578 1.05667 9.84101C1.11782 9.90624 1.15217 9.99471 1.15217 10.087V15.3043H14.8478V10.087C14.8478 9.99471 14.8822 9.90624 14.9433 9.84101C15.0045 9.77578 15.0874 9.73913 15.1739 9.73913C15.2604 9.73913 15.3433 9.77578 15.4045 9.84101C15.4656 9.90624 15.5 9.99471 15.5 10.087ZM7.76929 10.333C7.79958 10.3654 7.83554 10.391 7.87513 10.4085C7.91471 10.426 7.95715 10.4351 8 10.4351C8.04285 10.4351 8.08529 10.426 8.12487 10.4085C8.16446 10.391 8.20042 10.3654 8.23071 10.333L11.4916 6.85478C11.5219 6.82247 11.5459 6.7841 11.5623 6.74188C11.5787 6.69965 11.5871 6.6544 11.5871 6.6087C11.5871 6.56299 11.5787 6.51774 11.5623 6.47551C11.5459 6.43329 11.5219 6.39493 11.4916 6.36261C11.4613 6.33029 11.4253 6.30466 11.3857 6.28717C11.3461 6.26968 11.3037 6.26068 11.2609 6.26068C11.218 6.26068 11.1756 6.26968 11.136 6.28717C11.0964 6.30466 11.0605 6.33029 11.0302 6.36261L8.32609 9.24696V0.347826C8.32609 0.255577 8.29173 0.167106 8.23058 0.101876C8.16943 0.0366459 8.08648 0 8 0C7.91352 0 7.83057 0.0366459 7.76942 0.101876C7.70827 0.167106 7.67391 0.255577 7.67391 0.347826V9.24696L4.96984 6.36261C4.90865 6.29734 4.82566 6.26068 4.73913 6.26068C4.6526 6.26068 4.56961 6.29734 4.50842 6.36261C4.44724 6.42788 4.41286 6.5164 4.41286 6.6087C4.41286 6.701 4.44724 6.78952 4.50842 6.85478L7.76929 10.333Z" fill="#22324C"/>
</svg>
