<svg width="12" height="13" viewBox="0 0 12 13" fill="none" xmlns="http://www.w3.org/2000/svg">
<path fill-rule="evenodd" clip-rule="evenodd" d="M1.33317 11.6666H10.6665C10.8433 11.6666 11.0129 11.7369 11.1379 11.8619C11.2629 11.9869 11.3332 12.1565 11.3332 12.3333C11.3332 12.5101 11.2629 12.6797 11.1379 12.8047C11.0129 12.9297 10.8433 13 10.6665 13H1.33317C1.15636 13 0.98679 12.9297 0.861766 12.8047C0.736742 12.6797 0.666504 12.5101 0.666504 12.3333C0.666504 12.1565 0.736742 11.9869 0.861766 11.8619C0.98679 11.7369 1.15636 11.6666 1.33317 11.6666ZM6.6665 7.78331L8.8285 5.62198L9.77117 6.56465L5.99984 10.336L2.2285 6.56465L3.17117 5.62198L5.33317 7.78331V0.333313H6.6665V7.78331Z" fill="black"/>
</svg>
