<svg width="20" height="15" viewBox="0 0 20 15" fill="none" xmlns="http://www.w3.org/2000/svg">
<path d="M18.125 15H1.875C0.8375 15 0 14.1625 0 13.125V1.875C0 0.8375 0.8375 0 1.875 0H18.125C19.1625 0 20 0.8375 20 1.875V13.125C20 14.1625 19.1625 15 18.125 15ZM1.875 1.25C1.525 1.25 1.25 1.525 1.25 1.875V13.125C1.25 13.475 1.525 13.75 1.875 13.75H18.125C18.475 13.75 18.75 13.475 18.75 13.125V1.875C18.75 1.525 18.475 1.25 18.125 1.25H1.875Z" fill="#686230"/>
<path d="M10 9.95003C9.12503 9.95003 8.32503 9.60003 7.72503 8.96253L1.16253 1.98753C0.925026 1.73753 0.937526 1.33753 1.18753 1.10003C1.43753 0.862526 1.83753 0.875026 2.07503 1.12503L8.63753 8.10003C9.35003 8.86253 10.65 8.86253 11.3625 8.10003L17.925 1.13753C18.1625 0.887526 18.5625 0.875026 18.8125 1.11253C19.0625 1.35003 19.075 1.75003 18.8375 2.00003L12.275 8.97503C11.675 9.61253 10.875 9.96253 10 9.96253V9.95003Z" fill="#686230"/>
</svg>
