<svg width="20" height="20" viewBox="0 0 20 20" fill="none" xmlns="http://www.w3.org/2000/svg">
<g clip-path="url(#clip0_221_601)">
<path d="M10 9.16629L6.66667 17.4996M8.31167 13.8096C9.21831 14.2117 10.2386 14.2771 11.1892 13.9942C12.1398 13.7113 12.9583 13.0986 13.4976 12.2663C14.0368 11.434 14.2615 10.4365 14.1313 9.45336C14.001 8.47018 13.5243 7.5657 12.7869 6.90252C12.0494 6.23934 11.0996 5.86095 10.1082 5.83537C9.11673 5.80979 8.14867 6.1387 7.37801 6.76297C6.60736 7.38724 6.08465 8.26593 5.90386 9.24108C5.72306 10.2162 5.89603 11.2239 6.39167 12.083" stroke="white" stroke-width="1.5" stroke-linecap="round" stroke-linejoin="round"/>
<path d="M10 18.3332C14.6024 18.3332 18.3333 14.6022 18.3333 9.99983C18.3333 5.39746 14.6024 1.6665 10 1.6665C5.39763 1.6665 1.66667 5.39746 1.66667 9.99983C1.66667 14.6022 5.39763 18.3332 10 18.3332Z" stroke="white" stroke-width="1.5" stroke-linecap="round" stroke-linejoin="round"/>
</g>
<defs>
<clipPath id="clip0_221_601">
<rect width="20" height="20" fill="white"/>
</clipPath>
</defs>
</svg>
