<svg width="24" height="25" viewBox="0 0 24 25" fill="none" xmlns="http://www.w3.org/2000/svg">
<path d="M17 20.5C18.1046 20.5 19 19.6046 19 18.5C19 17.3954 18.1046 16.5 17 16.5C15.8954 16.5 15 17.3954 15 18.5C15 19.6046 15.8954 20.5 17 20.5Z" stroke="#71181E" stroke-linecap="round" stroke-linejoin="round"/>
<path d="M7 20.5C8.10457 20.5 9 19.6046 9 18.5C9 17.3954 8.10457 16.5 7 16.5C5.89543 16.5 5 17.3954 5 18.5C5 19.6046 5.89543 20.5 7 20.5Z" stroke="#71181E" stroke-linecap="round" stroke-linejoin="round"/>
<path d="M11 17.5H15M13.5 7.5H14.443C15.753 7.5 16.409 7.5 16.964 7.815C17.52 8.129 17.89 8.71 18.631 9.871C19.151 10.685 19.695 11.277 20.462 11.802C21.234 12.332 21.602 12.591 21.805 13.006C22 13.404 22 13.875 22 14.817C22 16.06 22 16.681 21.651 17.076L21.605 17.125C21.238 17.5 20.659 17.5 19.503 17.5H19" stroke="#71181E" stroke-linecap="round" stroke-linejoin="round"/>
<path d="M13 7.5L13.994 9.986C14.481 11.203 14.724 11.812 15.233 12.156C15.741 12.5 16.396 12.5 17.708 12.5H21M13 7.5C13 6.085 13 5.378 12.58 4.94C12.16 4.5 11.483 4.5 10.13 4.5H4.87C3.517 4.5 2.84 4.501 2.42 4.94C2 5.379 2 6.086 2 7.5V14.5C2 15.915 2 16.622 2.42 17.06C2.84 17.5 3.517 17.5 4.87 17.5M13 7.5V17.5H8.696" stroke="#71181E" stroke-linecap="round" stroke-linejoin="round"/>
</svg>
