<svg width="20" height="20" viewBox="0 0 20 20" fill="none" xmlns="http://www.w3.org/2000/svg">
<path d="M15.875 4.09155C15.1109 3.31997 14.2008 2.70819 13.1979 2.29185C12.195 1.87551 11.1192 1.66295 10.0333 1.66655C5.48333 1.66655 1.775 5.37488 1.775 9.92488C1.775 11.3832 2.15833 12.7999 2.875 14.0499L1.70833 18.3332L6.08333 17.1832C7.29166 17.8415 8.65 18.1915 10.0333 18.1915C14.5833 18.1915 18.2917 14.4832 18.2917 9.93321C18.2917 7.72488 17.4333 5.64988 15.875 4.09155ZM10.0333 16.7915C8.8 16.7915 7.59166 16.4582 6.53333 15.8332L6.28333 15.6832L3.68333 16.3665L4.375 13.8332L4.20833 13.5749C3.52295 12.4808 3.1591 11.2159 3.15833 9.92488C3.15833 6.14155 6.24166 3.05822 10.025 3.05822C11.8583 3.05822 13.5833 3.77488 14.875 5.07488C15.5147 5.71143 16.0216 6.46867 16.3664 7.30266C16.7111 8.13664 16.8868 9.03079 16.8833 9.93321C16.9 13.7165 13.8167 16.7915 10.0333 16.7915ZM13.8 11.6582C13.5917 11.5582 12.575 11.0582 12.3917 10.9832C12.2 10.9165 12.0667 10.8832 11.925 11.0832C11.7833 11.2915 11.3917 11.7582 11.275 11.8915C11.1583 12.0332 11.0333 12.0499 10.825 11.9415C10.6167 11.8415 9.95 11.6165 9.16666 10.9165C8.55 10.3665 8.14166 9.69155 8.01666 9.48321C7.9 9.27488 8 9.16655 8.10833 9.05821C8.2 8.96655 8.31666 8.81655 8.41666 8.69988C8.51666 8.58321 8.55833 8.49155 8.625 8.35821C8.69166 8.21655 8.65833 8.09988 8.60833 7.99988C8.55833 7.89988 8.14166 6.88321 7.975 6.46655C7.80833 6.06655 7.63333 6.11655 7.50833 6.10821H7.10833C6.96666 6.10821 6.75 6.15821 6.55833 6.36655C6.375 6.57488 5.84166 7.07488 5.84166 8.09155C5.84166 9.10821 6.58333 10.0915 6.68333 10.2249C6.78333 10.3665 8.14166 12.4499 10.2083 13.3415C10.7 13.5582 11.0833 13.6832 11.3833 13.7749C11.875 13.9332 12.325 13.9082 12.6833 13.8582C13.0833 13.7999 13.9083 13.3582 14.075 12.8749C14.25 12.3915 14.25 11.9832 14.1917 11.8915C14.1333 11.7999 14.0083 11.7582 13.8 11.6582Z" fill="white"/>
</svg>
