<svg width="22" height="22" viewBox="0 0 22 22" fill="none" xmlns="http://www.w3.org/2000/svg">
<path d="M11 14.6666C11.9724 14.6666 12.9051 14.2803 13.5927 13.5926C14.2803 12.905 14.6666 11.9724 14.6666 10.9999C14.6666 10.0275 14.2803 9.09483 13.5927 8.40719C12.9051 7.71956 11.9724 7.33325 11 7.33325C10.0275 7.33325 9.09489 7.71956 8.40725 8.40719C7.71962 9.09483 7.33331 10.0275 7.33331 10.9999C7.33331 11.9724 7.71962 12.905 8.40725 13.5926C9.09489 14.2803 10.0275 14.6666 11 14.6666Z" stroke="#686230" stroke-linecap="round" stroke-linejoin="round"/>
<path d="M2.75 14.6667V7.33333C2.75 6.11776 3.23289 4.95197 4.09243 4.09243C4.95197 3.23289 6.11776 2.75 7.33333 2.75H14.6667C15.8822 2.75 17.048 3.23289 17.9076 4.09243C18.7671 4.95197 19.25 6.11776 19.25 7.33333V14.6667C19.25 15.8822 18.7671 17.048 17.9076 17.9076C17.048 18.7671 15.8822 19.25 14.6667 19.25H7.33333C6.11776 19.25 4.95197 18.7671 4.09243 17.9076C3.23289 17.048 2.75 15.8822 2.75 14.6667Z" stroke="#686230"/>
<path d="M16.0417 5.96485L16.0484 5.95752" stroke="#686230" stroke-linecap="round" stroke-linejoin="round"/>
</svg>
