<svg width="19" height="22" viewBox="0 0 19 22" fill="none" xmlns="http://www.w3.org/2000/svg">
<path fill-rule="evenodd" clip-rule="evenodd" d="M9.50014 12.3264C10.2513 12.3264 10.9718 12.0281 11.5031 11.497C12.0344 10.966 12.3331 10.2457 12.3335 9.49447C12.3335 8.74302 12.035 8.02235 11.5036 7.491C10.9723 6.95964 10.2516 6.66113 9.50014 6.66113C8.7487 6.66113 8.02803 6.95964 7.49667 7.491C6.96532 8.02235 6.66681 8.74302 6.66681 9.49447C6.66718 10.2457 6.96586 10.966 7.49717 11.497C8.02849 12.0281 8.74894 12.3264 9.50014 12.3264Z" stroke="#686230" stroke-width="1.5" stroke-linecap="square"/>
<path fill-rule="evenodd" clip-rule="evenodd" d="M18 9.49433C18 16.5734 10.9167 20.8206 9.5 20.8206C8.08333 20.8206 1 16.5734 1 9.49433C1.00113 7.24086 1.8972 5.08009 3.49118 3.48717C5.08516 1.89426 7.24653 0.999624 9.5 1C14.1934 1 18 4.80375 18 9.49433Z" stroke="#686230" stroke-width="1.5" stroke-linecap="square"/>
</svg>
