<svg width="24" height="24" viewBox="0 0 24 24" fill="none" xmlns="http://www.w3.org/2000/svg">
<path d="M18.375 6V15.75C18.375 15.8495 18.3355 15.9448 18.2652 16.0152C18.1948 16.0855 18.0995 16.125 18 16.125C17.9005 16.125 17.8052 16.0855 17.7348 16.0152C17.6645 15.9448 17.625 15.8495 17.625 15.75V6.90563L6.26532 18.2653C6.19495 18.3357 6.09951 18.3752 6 18.3752C5.90049 18.3752 5.80506 18.3357 5.73469 18.2653C5.66432 18.1949 5.62479 18.0995 5.62479 18C5.62479 17.9005 5.66432 17.8051 5.73469 17.7347L17.0944 6.375H8.25C8.15055 6.375 8.05516 6.33549 7.98484 6.26517C7.91451 6.19484 7.875 6.09946 7.875 6C7.875 5.90054 7.91451 5.80516 7.98484 5.73484C8.05516 5.66451 8.15055 5.625 8.25 5.625H18C18.0995 5.625 18.1948 5.66451 18.2652 5.73484C18.3355 5.80516 18.375 5.90054 18.375 6Z" fill="black"/>
</svg>
