<svg width="20" height="20" viewBox="0 0 20 20" fill="none" xmlns="http://www.w3.org/2000/svg">
<g clip-path="url(#clip0_221_599)">
<path d="M10 0.833242C8.225 0.833242 6.95 0.853798 6.175 0.894909C5.48757 0.920358 4.80659 1.03722 4.15 1.24241C3.48084 1.48074 2.875 1.86574 2.36667 2.36741C1.85834 2.86908 1.48334 3.47491 1.24167 4.14991C1.03648 4.8065 0.91962 5.48748 0.894171 6.17491C0.852504 6.95324 0.832504 8.22491 0.832504 9.99991C0.832504 11.7749 0.85306 13.0499 0.894171 13.8249C0.919171 14.5124 1.03584 15.1916 1.24167 15.8499C1.48086 16.5199 1.865 17.1288 2.36667 17.6332C2.86334 18.1332 3.475 18.5082 4.15 18.7166C4.80084 18.9499 5.48334 19.0807 6.175 19.1049C6.9525 19.1466 8.225 19.1666 10 19.1666C11.775 19.1666 13.05 19.146 13.825 19.1049C14.5124 19.0795 15.1934 18.9626 15.85 18.7574C16.52 18.5182 17.1289 18.1341 17.6333 17.6324C18.135 17.128 18.5191 16.5191 18.7583 15.8491C18.9642 15.1924 19.0808 14.5074 19.1058 13.8241C19.1475 13.0466 19.1675 11.7741 19.1675 9.99908C19.1675 8.22408 19.1542 6.95741 19.1267 6.19074C19.0901 5.49469 18.9664 4.80598 18.7583 4.14074C18.5191 3.47075 18.135 2.86182 17.6333 2.35741C17.1289 1.85574 16.52 1.4716 15.85 1.23241C15.1934 1.02722 14.5124 0.910358 13.825 0.884909C13.0475 0.843242 11.775 0.823242 10 0.823242V0.833242ZM9.345 17.4999C8.25334 17.4999 7.41167 17.4866 6.81167 17.4591C6.06444 17.4465 5.32205 17.3364 4.60334 17.1316C4.20322 16.9766 3.83986 16.7397 3.53652 16.4362C3.23317 16.1327 2.99651 15.7693 2.84167 15.3691C2.63683 14.6504 2.52673 13.908 2.51417 13.1607C2.48667 12.5607 2.4725 11.7107 2.4725 10.6274V9.31908C2.4725 8.22741 2.48667 7.38574 2.51417 6.78574C2.52173 6.03811 2.63193 5.29506 2.84167 4.57741C2.98906 4.17351 3.22294 3.80672 3.52696 3.5027C3.83098 3.19868 4.19778 2.96479 4.60167 2.81741C5.32039 2.61257 6.06277 2.50247 6.81 2.48991C7.41 2.46241 8.26 2.44824 9.34334 2.44824H10.6517C11.7433 2.44824 12.585 2.46241 13.185 2.48991C13.9326 2.49747 14.6757 2.60767 15.3933 2.81741C15.7974 2.96469 16.1643 3.19853 16.4685 3.50256C16.7727 3.80658 17.0067 4.17343 17.1542 4.57741C17.3633 5.29574 17.4733 6.03574 17.4817 6.78574C17.5083 7.35852 17.5219 8.20297 17.5225 9.31908V10.6274C17.5225 11.7191 17.5083 12.5607 17.4817 13.1607C17.4683 13.9082 17.3583 14.6524 17.1542 15.3691C16.9969 15.7681 16.7601 16.131 16.4583 16.4357C16.1551 16.7394 15.7918 16.9764 15.3917 17.1316C14.6736 17.3393 13.9308 17.4495 13.1833 17.4591C12.6111 17.4869 11.7667 17.5005 10.65 17.4999H9.34167H9.345ZM14.9117 3.91658C14.6854 3.91632 14.4642 3.98329 14.2761 4.10898C14.088 4.23467 13.9415 4.41342 13.8551 4.62253C13.7688 4.83165 13.7465 5.0617 13.7912 5.28349C13.8358 5.50528 13.9453 5.70881 14.1058 5.86824C14.2099 5.97711 14.3351 6.06346 14.4739 6.12194C14.6126 6.18043 14.7619 6.2098 14.9125 6.20824C15.0602 6.21102 15.2067 6.18212 15.3423 6.12347C15.4779 6.06482 15.5993 5.97779 15.6983 5.86824C15.9063 5.64829 16.0333 5.3641 16.0583 5.06241C16.0542 4.75965 15.9321 4.47045 15.7179 4.25643C15.5037 4.0424 15.2144 3.92046 14.9117 3.91658ZM10.0033 5.39158C9.19763 5.38615 8.40557 5.59957 7.71167 6.00908C7.01692 6.41192 6.43952 6.98933 6.03667 7.68408C5.63194 8.37999 5.41873 9.17069 5.41873 9.97574C5.41873 10.7808 5.63194 11.5715 6.03667 12.2674C6.43858 12.9629 7.01621 13.5405 7.71167 13.9424C8.40759 14.3471 9.19828 14.5604 10.0033 14.5604C10.8084 14.5604 11.5991 14.3471 12.295 13.9424C12.9905 13.5405 13.5681 12.9629 13.97 12.2674C14.3747 11.5715 14.5879 10.7808 14.5879 9.97574C14.5879 9.17069 14.3747 8.37999 13.97 7.68408C13.5672 6.98933 12.9897 6.41192 12.295 6.00908C11.6011 5.59957 10.809 5.38615 10.0033 5.39158ZM10.0033 12.9249C9.61613 12.9247 9.23278 12.848 8.87527 12.6993C8.51776 12.5505 8.19313 12.3327 7.92 12.0582C7.36645 11.5061 7.05473 10.7568 7.05334 9.97491C7.05357 9.5877 7.13025 9.20435 7.27898 8.84684C7.4277 8.48933 7.64554 8.16471 7.92 7.89158C8.47216 7.33802 9.22148 7.02631 10.0033 7.02491C10.3905 7.02515 10.7739 7.10183 11.1314 7.25055C11.4889 7.39927 11.8135 7.61711 12.0867 7.89158C12.6402 8.44373 12.9519 9.19306 12.9533 9.97491C12.9531 10.3621 12.8764 10.7455 12.7277 11.103C12.579 11.4605 12.3611 11.7851 12.0867 12.0582C11.5345 12.6118 10.7852 12.9235 10.0033 12.9249Z" fill="white"/>
</g>
<defs>
<clipPath id="clip0_221_599">
<rect width="20" height="20" fill="white"/>
</clipPath>
</defs>
</svg>
