<svg width="22" height="22" viewBox="0 0 22 22" fill="none" xmlns="http://www.w3.org/2000/svg">
<path d="M20.7502 20.75L16.0453 16.0451M16.0453 16.0451C16.8501 15.2403 17.4885 14.2849 17.9241 13.2334C18.3596 12.1818 18.5838 11.0548 18.5838 9.91668C18.5838 8.77852 18.3596 7.65152 17.9241 6.6C17.4885 5.54849 16.8501 4.59306 16.0453 3.78826C15.2405 2.98346 14.2851 2.34507 13.2336 1.90951C12.182 1.47396 11.055 1.24979 9.91689 1.24979C8.77874 1.24979 7.65173 1.47396 6.60021 1.90951C5.5487 2.34507 4.59327 2.98346 3.78847 3.78826C2.16312 5.41362 1.25 7.61807 1.25 9.91668C1.25 12.2153 2.16312 14.4197 3.78847 16.0451C5.41383 17.6705 7.61829 18.5836 9.91689 18.5836C12.2155 18.5836 14.4199 17.6705 16.0453 16.0451Z" stroke="black" stroke-width="1.08333" stroke-linecap="round" stroke-linejoin="round"/>
</svg>
