<svg width="24" height="25" viewBox="0 0 24 25" fill="none" xmlns="http://www.w3.org/2000/svg">
<path d="M4 8.5H6M4 12.5H7M4 16.5H6M8 4.5V6.5M12 4.5V7.5M16 4.5V6.5M5 4.5H19C19.2652 4.5 19.5196 4.60536 19.7071 4.79289C19.8946 4.98043 20 5.23478 20 5.5V10.5C20 10.7652 19.8946 11.0196 19.7071 11.2071C19.5196 11.3946 19.2652 11.5 19 11.5H12C11.7348 11.5 11.4804 11.6054 11.2929 11.7929C11.1054 11.9804 11 12.2348 11 12.5V19.5C11 19.7652 10.8946 20.0196 10.7071 20.2071C10.5196 20.3946 10.2652 20.5 10 20.5H5C4.73478 20.5 4.48043 20.3946 4.29289 20.2071C4.10536 20.0196 4 19.7652 4 19.5V5.5C4 5.23478 4.10536 4.98043 4.29289 4.79289C4.48043 4.60536 4.73478 4.5 5 4.5Z" stroke="#71181E" stroke-linecap="round" stroke-linejoin="round"/>
</svg>
