<svg width="19" height="18" viewBox="0 0 19 18" fill="none" xmlns="http://www.w3.org/2000/svg">
<path d="M14.8771 11.4142L17.7137 14.084C17.8045 14.1694 17.8765 14.2708 17.9256 14.3823C17.9747 14.4939 18 14.6135 18 14.7343C18 14.8551 17.9747 14.9747 17.9256 15.0862C17.8765 15.1978 17.8045 15.2992 17.7137 15.3846C16.7161 16.3234 15.3922 16.892 13.9851 16.9861C12.5779 17.0802 11.1819 16.6934 10.0533 15.8968L8.36608 14.7051C6.49831 13.3867 4.83914 11.8251 3.43838 10.0672L2.17218 8.47926C1.32574 7.41707 0.914776 6.10317 1.01474 4.77877C1.1147 3.45437 1.71889 2.20834 2.71637 1.26944C2.80709 1.18402 2.91481 1.11626 3.03336 1.07003C3.15192 1.02379 3.27899 1 3.40732 1C3.53564 1 3.66271 1.02379 3.78127 1.07003C3.89982 1.11626 4.00754 1.18402 4.09827 1.26944L6.93491 3.93922C7.13574 4.12829 7.24855 4.38469 7.24855 4.65203C7.24855 4.91938 7.13574 5.17578 6.93491 5.36485L5.84117 6.39425C5.75623 6.47404 5.70017 6.57699 5.68094 6.68848C5.66171 6.79997 5.68029 6.91433 5.73405 7.01531C7.00512 9.40801 9.06649 11.3481 11.6087 12.5444C11.716 12.595 11.8375 12.6125 11.956 12.5944C12.0744 12.5763 12.1838 12.5235 12.2686 12.4436L13.3613 11.4152C13.4608 11.3215 13.5789 11.2471 13.709 11.1964C13.839 11.1456 13.9784 11.1195 14.1192 11.1195C14.26 11.1195 14.3994 11.1456 14.5294 11.1964C14.6594 11.2471 14.7776 11.3215 14.8771 11.4152V11.4142Z" stroke="#686230" stroke-width="1.41667"/>
</svg>
