<svg width="17" height="20" viewBox="0 0 17 20" fill="none" xmlns="http://www.w3.org/2000/svg">
<path d="M8.5 2.4C7.49807 2.4 6.53718 2.80036 5.82871 3.51299C5.12024 4.22563 4.72222 5.19218 4.72222 6.2C4.72222 7.20782 5.12024 8.17437 5.82871 8.88701C6.53718 9.59964 7.49807 10 8.5 10C9.50193 10 10.4628 9.59964 11.1713 8.88701C11.8798 8.17437 12.2778 7.20782 12.2778 6.2C12.2778 5.19218 11.8798 4.22563 11.1713 3.51299C10.4628 2.80036 9.50193 2.4 8.5 2.4ZM2.83333 6.2C2.83333 4.68827 3.43036 3.23845 4.49306 2.16949C5.55577 1.10053 6.99711 0.5 8.5 0.5C10.0029 0.5 11.4442 1.10053 12.5069 2.16949C13.5696 3.23845 14.1667 4.68827 14.1667 6.2C14.1667 7.71173 13.5696 9.16155 12.5069 10.2305C11.4442 11.2995 10.0029 11.9 8.5 11.9C6.99711 11.9 5.55577 11.2995 4.49306 10.2305C3.43036 9.16155 2.83333 7.71173 2.83333 6.2ZM4.72222 15.7C3.97078 15.7 3.25011 16.0003 2.71875 16.5347C2.1874 17.0692 1.88889 17.7941 1.88889 18.55C1.88889 18.802 1.78938 19.0436 1.61227 19.2218C1.43515 19.3999 1.19493 19.5 0.944444 19.5C0.693962 19.5 0.453739 19.3999 0.276621 19.2218C0.0995036 19.0436 0 18.802 0 18.55C0 17.2902 0.497518 16.082 1.38311 15.1912C2.2687 14.3004 3.46981 13.8 4.72222 13.8H12.2778C13.5302 13.8 14.7313 14.3004 15.6169 15.1912C16.5025 16.082 17 17.2902 17 18.55C17 18.802 16.9005 19.0436 16.7234 19.2218C16.5463 19.3999 16.306 19.5 16.0556 19.5C15.8051 19.5 15.5648 19.3999 15.3877 19.2218C15.2106 19.0436 15.1111 18.802 15.1111 18.55C15.1111 17.7941 14.8126 17.0692 14.2812 16.5347C13.7499 16.0003 13.0292 15.7 12.2778 15.7H4.72222Z" fill="#FAF7F4"/>
</svg>
