<svg width="167" height="57" viewBox="0 0 167 57" fill="none" xmlns="http://www.w3.org/2000/svg">
<path d="M76.1285 15.8936C76.0958 18.6171 76.1278 21.3397 76.2262 24.0616C77.8788 23.0033 79.6835 22.6259 81.6393 22.9297C84.7442 23.4417 86.8932 25.1643 88.0856 28.0967C88.8623 30.5349 88.9273 32.9952 88.2819 35.4776C87.6376 37.2942 86.6044 38.8359 85.1823 40.1026C85.1762 40.0494 85.1432 40.0171 85.0836 40.0049C82.6652 41.6406 80.0077 42.2142 77.1119 41.7266C72.7098 40.7675 70.3975 38.0287 70.1744 33.5098C70.1252 28.2614 70.1082 23.0124 70.1246 17.7637V15.8936H76.1285ZM79.2281 28.9337C77.3802 28.9337 75.8824 30.4314 75.8824 32.2794C75.8825 34.1273 77.3802 35.6251 79.2281 35.6251C81.0761 35.625 82.5738 34.1273 82.5739 32.2794C82.5739 30.4314 81.0761 28.9337 79.2281 28.9337Z" fill="black"/>
<path fill-rule="evenodd" clip-rule="evenodd" d="M28.638 0C29.9174 0 31.1967 0 32.4761 0C38.0733 0.362135 43.2728 2.00234 48.0744 4.92062C48.1401 5.01903 48.1401 5.11744 48.0744 5.21585C46.1612 9.33701 44.2258 13.4375 42.2681 17.5174C42.091 17.4367 41.9105 17.3712 41.7268 17.3206C37.286 14.7016 32.4967 13.6683 27.3586 14.2206C24.0244 14.7965 21.2525 16.3547 19.0428 18.8952C18.9747 18.9874 18.9911 19.0529 19.092 19.092C18.1443 19.9997 17.4391 21.0823 16.9761 22.3396C15.7374 25.8509 15.7374 29.3609 16.9761 32.8697C18.9867 37.0181 22.2835 39.4292 26.8666 40.103C29.0027 40.382 31.1021 40.2673 33.165 39.7586C33.6952 39.6474 34.2201 39.5162 34.7396 39.3649C34.7396 37.7903 34.7396 36.2157 34.7396 34.6411C31.7872 34.6411 28.8348 34.6411 25.8825 34.6411C26.523 31.5354 27.179 28.4355 27.8507 25.3412C27.4584 25.2921 27.0648 25.2756 26.6698 25.292C27.0435 25.1952 27.4372 25.1624 27.8507 25.1936C27.9525 24.6103 28.0836 24.0362 28.2444 23.4713C35.166 23.4221 42.0876 23.4057 49.0094 23.4221C49.0419 32.7782 49.0091 42.1274 48.9109 51.4697C48.4116 51.6142 47.9195 51.7783 47.4348 51.9617C39.4483 54.5028 31.3129 55.1096 23.0285 53.7823C16.846 52.7012 11.6465 49.8637 7.43014 45.2697C4.29954 41.4665 2.4297 37.1036 1.82064 32.1808C1.12091 26.9848 1.67858 21.9329 3.49365 17.0253C4.34315 14.9309 5.4421 12.9954 6.79046 11.219C12.3629 4.20081 19.6454 0.461144 28.638 0Z" fill="#186B92"/>
<path fill-rule="evenodd" clip-rule="evenodd" d="M6.79045 11.219C5.44208 12.9954 4.34314 14.9309 3.49364 17.0253C1.67857 21.9329 1.1209 26.9847 1.82063 32.1808C2.42969 37.1036 4.29953 41.4665 7.43013 45.2697C11.6465 49.8637 16.846 52.7012 23.0285 53.7823C31.3129 55.1096 39.4483 54.5028 47.4347 51.9617C47.4347 52.3881 47.4347 52.8146 47.4347 53.2411C42.2302 55.0648 36.8832 56.0818 31.3935 56.2918C30.1798 56.2918 28.966 56.2918 27.7523 56.2918C22.0133 56.1855 16.6335 54.7257 11.6127 51.9125C5.22992 47.8635 1.47384 42.0736 0.344443 34.5427C0.246264 33.6403 0.13145 32.7546 0 31.8856C0 30.3766 0 28.8676 0 27.3586C0.179581 25.9245 0.392807 24.4811 0.63968 23.0285C1.63456 18.5118 3.68481 14.5753 6.79045 11.219Z" fill="#060709"/>
<path fill-rule="evenodd" clip-rule="evenodd" d="M111.108 18.3047C110.028 19.3346 108.962 20.3842 107.909 21.4539C106.977 20.4234 106.01 19.423 105.006 18.4523C104.948 18.4067 104.882 18.3902 104.809 18.4031C104.657 18.1017 104.443 17.8393 104.169 17.6158C105.426 16.0463 106.821 14.5701 108.352 13.1873C109.664 14.4503 110.943 15.7461 112.19 17.0745C111.772 17.4428 111.412 17.8528 111.108 18.3047Z" fill="#11709B"/>
<path fill-rule="evenodd" clip-rule="evenodd" d="M41.7268 17.3206C41.4045 17.9984 41.0601 18.6545 40.6935 19.2888C39.3287 18.5817 37.9345 17.942 36.511 17.3698C34.4767 16.5988 32.3773 16.1067 30.2126 15.8936C26.0456 15.441 22.3387 16.5071 19.092 19.092C18.9911 19.0529 18.9747 18.9874 19.0428 18.8952C21.2525 16.3546 24.0244 14.7965 27.3586 14.2206C32.4967 13.6683 37.286 14.7016 41.7268 17.3206Z" fill="#050709"/>
<path fill-rule="evenodd" clip-rule="evenodd" d="M137.876 40.1522C136.4 40.1522 134.923 40.1522 133.447 40.1522C133.447 32.2136 133.447 24.2751 133.447 16.3364C132.923 16.3364 132.397 16.3364 131.873 16.3364C132.378 16.2392 132.903 16.2064 133.447 16.238C133.447 15.6476 133.447 15.0571 133.447 14.4666C135.448 14.4666 137.45 14.4666 139.45 14.4666C139.45 23.0285 139.45 31.5904 139.45 40.1522C138.926 40.1522 138.4 40.1522 137.876 40.1522Z" fill="#186B92"/>
<path fill-rule="evenodd" clip-rule="evenodd" d="M147.225 40.1522C145.749 40.1522 144.272 40.1522 142.796 40.1522C142.796 32.2136 142.796 24.2751 142.796 16.3364C142.272 16.3364 141.746 16.3364 141.222 16.3364C141.728 16.2392 142.252 16.2064 142.796 16.238C142.796 15.6476 142.796 15.0571 142.796 14.4666C144.797 14.4666 146.799 14.4666 148.799 14.4666C148.799 23.0285 148.799 31.5904 148.799 40.1522C148.275 40.1522 147.749 40.1522 147.225 40.1522Z" fill="#186B92"/>
<path fill-rule="evenodd" clip-rule="evenodd" d="M131.873 16.3364C132.397 16.3364 132.923 16.3364 133.447 16.3364C133.447 24.2751 133.447 32.2136 133.447 40.1522C134.923 40.1522 136.4 40.1522 137.876 40.1522C137.876 40.7427 137.876 41.3332 137.876 41.9236C135.875 41.9236 133.873 41.9236 131.873 41.9236C131.873 33.3945 131.873 24.8655 131.873 16.3364Z" fill="#030405"/>
<path fill-rule="evenodd" clip-rule="evenodd" d="M141.222 16.3364C141.746 16.3364 142.272 16.3364 142.796 16.3364C142.796 24.2751 142.796 32.2136 142.796 40.1522C144.272 40.1522 145.749 40.1522 147.225 40.1522C147.225 40.7427 147.225 41.3332 147.225 41.9236C145.224 41.9236 143.222 41.9236 141.222 41.9236C141.222 33.3945 141.222 24.8655 141.222 16.3364Z" fill="#040508"/>
<path fill-rule="evenodd" clip-rule="evenodd" d="M111.108 18.3047C111.383 18.5305 111.645 18.7766 111.895 19.0428C111.052 19.869 110.232 20.7055 109.435 21.5523C108.221 21.6835 107.007 21.6835 105.793 21.5523C105.139 20.8654 104.483 20.1765 103.825 19.4856C104.132 19.099 104.46 18.7381 104.809 18.4031C104.882 18.3902 104.948 18.4066 105.006 18.4523C106.01 19.4229 106.977 20.4234 107.909 21.4539C108.962 20.3842 110.028 19.3346 111.108 18.3047Z" fill="#060709"/>
<path fill-rule="evenodd" clip-rule="evenodd" d="M101.168 27.9491C99.9928 28.1396 99.2055 28.7957 98.806 29.9174C98.7469 30.1759 98.6977 30.4382 98.6584 30.7047C98.6092 33.8537 98.5924 37.0028 98.6092 40.1522C98.0843 40.1522 97.5594 40.1522 97.0346 40.1522C95.6086 40.0542 94.1652 40.0214 92.7044 40.0538C92.7371 34.5261 92.7043 29.015 92.606 23.5206C92.606 23.4878 92.606 23.4549 92.606 23.4221C92.7033 22.8833 92.7361 22.3256 92.7044 21.7491C94.6727 21.7491 96.6409 21.7491 98.6092 21.7491C98.5924 22.3405 98.6092 22.931 98.6584 23.5206C99.6258 22.1429 100.954 21.4869 102.644 21.5523C102.644 23.6517 102.644 25.7513 102.644 27.8507C102.133 27.8191 101.641 27.852 101.168 27.9491Z" fill="#186B92"/>
<path fill-rule="evenodd" clip-rule="evenodd" d="M98.6092 21.7491C96.6409 21.7491 94.6727 21.7491 92.7044 21.7491C92.7361 22.3256 92.7033 22.8833 92.606 23.4222C92.606 22.8317 92.606 22.2412 92.606 21.6507C94.6242 21.6183 96.6252 21.651 98.6092 21.7491Z" fill="#186B92"/>
<path fill-rule="evenodd" clip-rule="evenodd" d="M105.793 21.5523C107.007 21.6835 108.221 21.6835 109.435 21.5523C110.006 21.6497 110.597 21.6825 111.206 21.6507C111.206 27.8179 111.206 33.985 111.206 40.1522C110.681 40.1522 110.156 40.1522 109.631 40.1522C109.663 40.7614 109.63 41.3519 109.533 41.9237C109.533 41.3332 109.533 40.7427 109.533 40.1522C108.107 40.0542 106.663 40.0215 105.203 40.0538C105.235 34.5261 105.203 29.015 105.104 23.5206C105.104 23.4878 105.104 23.4549 105.104 23.4221C105.104 22.8317 105.104 22.2412 105.104 21.6507C105.356 21.6804 105.586 21.6476 105.793 21.5523Z" fill="#1C6C93"/>
<path d="M113.507 27.6922C116.368 23.7148 120.141 22.4846 124.824 24.0018C127.266 25.1653 128.907 27.0351 129.745 29.6111C129.164 30.0784 128.574 30.5209 127.973 30.9393C125.385 32.7589 122.793 34.5796 120.199 36.4012C120.08 36.4891 120.08 36.5711 120.199 36.6473C120.353 36.7268 120.518 36.76 120.691 36.7459C122.692 37.123 124.562 36.7457 126.3 35.6141C126.966 35.1952 127.588 34.7194 128.17 34.1873C128.348 36.1377 128.512 38.0897 128.662 40.0428C128.653 40.1516 128.62 40.2499 128.563 40.3377C128.052 40.6428 127.526 40.9221 126.989 41.1746C123.938 42.5135 120.822 42.6937 117.64 41.7156C114.697 40.4781 112.908 38.2961 112.276 35.1707C111.73 32.5076 112.141 30.0148 113.507 27.6922ZM123.052 28.9217C122.626 28.4296 119.707 27.397 118.034 30.201C117.887 30.447 117.213 32.1039 117.639 32.9568L123.052 28.9217Z" fill="black"/>
<path fill-rule="evenodd" clip-rule="evenodd" d="M92.606 23.4221C92.606 23.4549 92.606 23.4878 92.606 23.5205C92.114 23.5205 91.6219 23.5205 91.1298 23.5205C91.1298 29.6549 91.1298 35.7893 91.1298 41.9236C91.0315 35.7731 90.9988 29.606 91.0314 23.4221C91.5563 23.4221 92.0812 23.4221 92.606 23.4221Z" fill="#464646"/>
<path fill-rule="evenodd" clip-rule="evenodd" d="M92.606 23.5206C92.606 29.0644 92.606 34.6084 92.606 40.1523C94.0822 40.1523 95.5584 40.1523 97.0346 40.1523C97.0346 40.7427 97.0346 41.3332 97.0346 41.9237C95.0663 41.9237 93.0981 41.9237 91.1298 41.9237C91.1298 35.7893 91.1298 29.6549 91.1298 23.5206C91.6219 23.5206 92.1139 23.5206 92.606 23.5206Z" fill="#030405"/>
<path fill-rule="evenodd" clip-rule="evenodd" d="M105.104 23.4221C105.104 23.4549 105.104 23.4878 105.104 23.5205C104.612 23.5205 104.12 23.5205 103.628 23.5205C103.628 29.6549 103.628 35.7893 103.628 41.9236C103.53 35.7731 103.497 29.606 103.53 23.4221C104.054 23.4221 104.58 23.4221 105.104 23.4221Z" fill="#464646"/>
<path fill-rule="evenodd" clip-rule="evenodd" d="M105.104 23.5206C105.104 29.0644 105.104 34.6084 105.104 40.1523C106.581 40.1523 108.057 40.1523 109.533 40.1523C109.533 40.7427 109.533 41.3332 109.533 41.9237C107.565 41.9237 105.596 41.9237 103.628 41.9237C103.628 35.7893 103.628 29.6549 103.628 23.5206C104.12 23.5206 104.612 23.5206 105.104 23.5206Z" fill="#030405"/>
<path fill-rule="evenodd" clip-rule="evenodd" d="M92.606 23.5206C92.7043 29.015 92.7371 34.5261 92.7044 40.0538C94.1652 40.0215 95.6086 40.0542 97.0346 40.1523C95.5584 40.1523 94.0822 40.1523 92.606 40.1523C92.606 34.6084 92.606 29.0644 92.606 23.5206Z" fill="#21506C"/>
<path fill-rule="evenodd" clip-rule="evenodd" d="M105.104 23.5206C105.203 29.015 105.235 34.5261 105.203 40.0538C106.663 40.0215 108.107 40.0542 109.533 40.1523C108.057 40.1523 106.581 40.1523 105.104 40.1523C105.104 34.6084 105.104 29.0644 105.104 23.5206Z" fill="#21506B"/>
<path fill-rule="evenodd" clip-rule="evenodd" d="M26.6698 25.292C27.0648 25.2757 27.4584 25.2921 27.8507 25.3412C27.179 28.4355 26.523 31.5355 25.8825 34.6412C28.8348 34.6412 31.7872 34.6412 34.7396 34.6412C34.7396 36.2158 34.7396 37.7904 34.7396 39.365C34.2201 39.5162 33.6952 39.6474 33.165 39.7586C33.165 38.6433 33.165 37.5279 33.165 36.4126C30.2124 36.429 27.26 36.4126 24.3079 36.3634C25.103 32.6658 25.8903 28.9754 26.6698 25.292Z" fill="#050608"/>
<path fill-rule="evenodd" clip-rule="evenodd" d="M101.168 27.9491C101.088 28.536 101.056 29.1265 101.069 29.7205C100.301 29.6738 99.5461 29.7394 98.806 29.9173C99.2056 28.7957 99.9929 28.1396 101.168 27.9491Z" fill="#0C0E0F"/>
<path fill-rule="evenodd" clip-rule="evenodd" d="M166.711 43.4982C166.711 43.531 166.711 43.5639 166.711 43.5966C128.625 43.5966 90.5394 43.5966 52.4538 43.5966C52.4538 43.7607 52.4538 43.9247 52.4538 44.0887C90.5394 44.0887 128.625 44.0887 166.711 44.0887C166.711 44.1215 166.711 44.1543 166.711 44.1871C128.592 44.1871 90.4737 44.1871 52.3554 44.1871C52.3554 43.9575 52.3554 43.7278 52.3554 43.4982C90.4737 43.4982 128.592 43.4982 166.711 43.4982Z" fill="#272727"/>
<path fill-rule="evenodd" clip-rule="evenodd" d="M166.71 43.5967C166.71 43.7607 166.71 43.9247 166.71 44.0887C128.625 44.0887 90.5393 44.0887 52.4538 44.0887C52.4538 43.9247 52.4538 43.7607 52.4538 43.5967C90.5393 43.5967 128.625 43.5967 166.71 43.5967Z" fill="#030405"/>
<path fill-rule="evenodd" clip-rule="evenodd" d="M150.571 45.5649C150.702 45.5649 150.834 45.5649 150.965 45.5649C150.965 46.0569 150.965 46.549 150.965 47.0411C150.834 47.0411 150.702 47.0411 150.571 47.0411C150.571 46.549 150.571 46.0569 150.571 45.5649Z" fill="#0C2242"/>
<path fill-rule="evenodd" clip-rule="evenodd" d="M53.2411 46.0569C54.0291 46.0406 54.8164 46.0569 55.603 46.1061C57.1363 46.7429 57.5136 47.8091 56.7347 49.3045C56.0394 49.9737 55.2029 50.2525 54.2252 50.141C55.3768 51.3252 56.4921 52.539 57.5712 53.7823C57.3744 53.8479 57.1776 53.8479 56.9808 53.7823C55.9162 52.5569 54.8173 51.3596 53.6839 50.1902C53.6347 51.4035 53.6183 52.6173 53.6347 53.8315C53.5036 53.8315 53.3723 53.8315 53.2411 53.8315C53.2411 51.24 53.2411 48.6484 53.2411 46.0569ZM53.6347 46.4505C54.4872 46.3681 55.3072 46.4829 56.095 46.7949C56.8823 47.6479 56.8823 48.5007 56.095 49.3537C55.8248 49.5259 55.5296 49.6243 55.2093 49.6489C54.6855 49.698 54.1606 49.7144 53.6347 49.6981C53.6347 48.6156 53.6347 47.533 53.6347 46.4505Z" fill="#0E2342"/>
<path fill-rule="evenodd" clip-rule="evenodd" d="M137.088 45.5648C137.288 45.5489 137.485 45.5653 137.679 45.6141C138.11 46.0777 138.504 46.5697 138.86 47.0902C138.695 47.1559 138.532 47.1559 138.368 47.0902C138.055 46.696 137.727 46.3187 137.384 45.9585C137.056 46.3521 136.727 46.7458 136.4 47.1394C136.235 47.2706 136.072 47.2706 135.907 47.1394C136.341 46.6406 136.735 46.1158 137.088 45.5648Z" fill="#122645"/>
<path fill-rule="evenodd" clip-rule="evenodd" d="M81.9775 45.5649C82.1087 45.5649 82.2399 45.5649 82.3711 45.5649C82.3711 46.0569 82.3711 46.549 82.3711 47.0411C82.2399 47.0411 82.1087 47.0411 81.9775 47.0411C81.9775 46.549 81.9775 46.0569 81.9775 45.5649Z" fill="#0A2140"/>
<path fill-rule="evenodd" clip-rule="evenodd" d="M79.714 46.4506C79.8124 46.4506 79.9108 46.4506 80.0092 46.4506C80.0092 47.041 80.0092 47.6315 80.0092 48.222C80.2717 48.222 80.5341 48.222 80.7965 48.222C80.7965 48.3532 80.7965 48.4844 80.7965 48.6156C80.5341 48.6156 80.2717 48.6156 80.0092 48.6156C80.0092 50.3543 80.0092 52.0928 80.0092 53.8315C79.878 53.8315 79.7468 53.8315 79.6156 53.8315C79.6156 52.0928 79.6156 50.3543 79.6156 48.6156C79.386 48.6156 79.1563 48.6156 78.9267 48.6156C78.9267 48.4844 78.9267 48.3532 78.9267 48.222C79.1563 48.222 79.386 48.222 79.6156 48.222C79.5871 47.6226 79.62 47.0321 79.714 46.4506Z" fill="#0E2342"/>
<path fill-rule="evenodd" clip-rule="evenodd" d="M105.006 46.4506C105.104 46.4506 105.203 46.4506 105.301 46.4506C105.301 47.041 105.301 47.6315 105.301 48.222C105.564 48.222 105.826 48.222 106.088 48.222C106.088 48.3532 106.088 48.4844 106.088 48.6156C105.826 48.6156 105.564 48.6156 105.301 48.6156C105.301 50.3543 105.301 52.0928 105.301 53.8315C105.17 53.8315 105.038 53.8315 104.908 53.8315C104.908 52.0928 104.908 50.3543 104.908 48.6156C104.678 48.6156 104.448 48.6156 104.219 48.6156C104.219 48.4844 104.219 48.3532 104.219 48.222C104.448 48.222 104.678 48.222 104.908 48.222C104.879 47.6226 104.911 47.0321 105.006 46.4506Z" fill="#0E2342"/>
<path fill-rule="evenodd" clip-rule="evenodd" d="M60.1299 48.1236C62.1685 47.9321 63.2838 48.8506 63.476 50.8791C61.803 50.8791 60.1299 50.8791 58.4569 50.8791C58.659 53.0462 59.8071 53.8499 61.9014 53.2902C62.4073 53.0303 62.801 52.6531 63.0823 52.1585C63.3012 52.2157 63.3832 52.3469 63.3283 52.5522C62.2325 53.9864 60.8712 54.2981 59.2442 53.4871C57.9616 52.2884 57.7156 50.8942 58.5061 49.3045C58.9298 48.731 59.4711 48.3373 60.1299 48.1236ZM60.3268 48.5172C61.7735 48.4228 62.6592 49.079 62.9839 50.4855C61.5077 50.4855 60.0315 50.4855 58.5553 50.4855C58.7662 49.4873 59.3567 48.8313 60.3268 48.5172Z" fill="#0E2342"/>
<path fill-rule="evenodd" clip-rule="evenodd" d="M81.9775 48.222C82.1087 48.222 82.2399 48.222 82.3711 48.222C82.3711 50.0918 82.3711 51.9617 82.3711 53.8315C82.2399 53.8315 82.1087 53.8315 81.9775 53.8315C81.9775 51.9617 81.9775 50.0918 81.9775 48.222Z" fill="#0E2342"/>
<path fill-rule="evenodd" clip-rule="evenodd" d="M150.571 48.222C150.702 48.222 150.834 48.222 150.965 48.222C150.965 50.0918 150.965 51.9617 150.965 53.8315C150.834 53.8315 150.702 53.8315 150.571 53.8315C150.571 51.9617 150.571 50.0918 150.571 48.222Z" fill="#0E2342"/>
<path fill-rule="evenodd" clip-rule="evenodd" d="M154.311 48.1236C154.872 48.1052 155.43 48.1379 155.984 48.222C155.984 48.3532 155.984 48.4844 155.984 48.6156C154.034 48.2441 152.918 49.0314 152.638 50.9775C152.862 52.9934 153.977 53.8135 155.984 53.4378C155.984 53.569 155.984 53.7003 155.984 53.8315C154.333 54.2116 153.137 53.6539 152.392 52.1585C151.879 50.2332 152.518 48.8883 154.311 48.1236Z" fill="#0E2342"/>
<path fill-rule="evenodd" clip-rule="evenodd" d="M132.955 48.222C133.349 48.222 133.742 48.222 134.136 48.222C134.136 48.3532 134.136 48.4845 134.136 48.6156C133.649 48.5624 133.189 48.6444 132.758 48.8617C132.664 49.0013 132.582 49.1489 132.512 49.3045C132.463 50.8132 132.446 52.3221 132.463 53.8315C132.332 53.8315 132.2 53.8315 132.069 53.8315C132.053 52.2566 132.069 50.682 132.119 49.1077C132.285 48.6958 132.563 48.4006 132.955 48.222Z" fill="#0E2342"/>
<path fill-rule="evenodd" clip-rule="evenodd" d="M85.2251 48.1235C86.3163 47.9558 87.12 48.3494 87.6362 49.3045C87.814 48.733 88.1912 48.3557 88.7679 48.1728C89.9596 47.9398 90.7634 48.3827 91.179 49.5013C91.2283 50.9443 91.2447 52.3878 91.2283 53.8315C91.0971 53.8315 90.9658 53.8315 90.8346 53.8315C90.851 52.4533 90.8346 51.0755 90.7854 49.6981C90.3228 48.4645 89.519 48.1857 88.3743 48.8616C88.1844 49.0839 88.0367 49.3299 87.9314 49.5997C87.7926 51.0054 87.7434 52.4159 87.7838 53.8315C87.6526 53.8315 87.5214 53.8315 87.3902 53.8315C87.4066 52.4861 87.3902 51.1412 87.341 49.7966C86.8673 48.5015 86.0308 48.1899 84.8315 48.8616C84.6197 49.1046 84.472 49.3834 84.3886 49.6981C84.3394 51.0755 84.323 52.4533 84.3394 53.8315C84.2082 53.8315 84.0769 53.8315 83.9457 53.8315C83.9293 52.3878 83.9457 50.9443 83.9949 49.5013C84.1845 48.8365 84.5946 48.3773 85.2251 48.1235Z" fill="#0E2342"/>
<path fill-rule="evenodd" clip-rule="evenodd" d="M136.498 48.1236C137.71 47.9527 138.678 48.3464 139.401 49.3045C139.45 48.9451 139.467 48.5843 139.45 48.222C139.581 48.222 139.713 48.222 139.844 48.222C139.844 50.0918 139.844 51.9616 139.844 53.8315C139.713 53.8315 139.581 53.8315 139.45 53.8315C139.467 53.4691 139.45 53.1083 139.401 52.7489C138.679 53.7229 137.71 54.1002 136.498 53.8807C135.364 53.5648 134.691 52.8267 134.48 51.6664C134.217 49.9286 134.889 48.7477 136.498 48.1236ZM136.695 48.5172C138.721 48.4718 139.656 49.4559 139.499 51.4696C139.176 52.9725 138.241 53.645 136.695 53.4871C135.243 52.9624 134.636 51.9291 134.874 50.3871C135.173 49.448 135.78 48.8248 136.695 48.5172Z" fill="#0E2342"/>
<path fill-rule="evenodd" clip-rule="evenodd" d="M100.479 48.1236C101.609 47.9258 102.445 48.3195 102.989 49.3045C103.13 50.8077 103.179 52.3168 103.136 53.8315C103.005 53.8315 102.873 53.8315 102.742 53.8315C102.783 52.3831 102.734 50.9397 102.595 49.5013C102.032 48.5048 101.229 48.2588 100.184 48.7632C99.9269 48.954 99.7468 49.2 99.6425 49.5013C99.5037 50.9397 99.4545 52.3831 99.4949 53.8315C99.364 53.8315 99.2321 53.8315 99.1012 53.8315C99.0845 52.4533 99.1012 51.0755 99.1504 49.6981C99.3325 48.9429 99.7754 48.418 100.479 48.1236Z" fill="#0E2342"/>
<path fill-rule="evenodd" clip-rule="evenodd" d="M142.796 48.1235C143.888 47.9558 144.691 48.3494 145.207 49.3045C145.386 48.733 145.762 48.3557 146.339 48.1728C147.531 47.9398 148.335 48.3827 148.75 49.5013C148.799 50.9443 148.816 52.3878 148.799 53.8315C148.669 53.8315 148.537 53.8315 148.406 53.8315C148.423 52.4533 148.406 51.0755 148.357 49.6981C147.894 48.4645 147.09 48.1857 145.945 48.8616C145.756 49.0839 145.608 49.3299 145.503 49.5997C145.364 51.0054 145.315 52.4159 145.355 53.8315C145.224 53.8315 145.092 53.8315 144.961 53.8315C144.978 52.4861 144.961 51.1412 144.912 49.7966C144.486 48.5748 143.682 48.2303 142.501 48.7632C142.232 49.0217 142.052 49.3333 141.96 49.6981C141.911 51.0755 141.894 52.4533 141.911 53.8315C141.78 53.8315 141.648 53.8315 141.517 53.8315C141.5 52.3878 141.517 50.9443 141.566 49.5013C141.756 48.8365 142.165 48.3773 142.796 48.1235Z" fill="#0E2342"/>
<path fill-rule="evenodd" clip-rule="evenodd" d="M164.053 48.1236C164.481 48.1073 164.908 48.1237 165.333 48.1728C165.477 48.2427 165.543 48.3574 165.53 48.5173C165.069 48.5009 164.609 48.5173 164.152 48.5665C163.36 48.9948 163.261 49.5525 163.857 50.2395C164.491 50.6442 165.098 51.0871 165.677 51.568C166.229 52.7026 165.917 53.4736 164.742 53.8807C164.181 53.9483 163.623 53.932 163.069 53.8315C163.069 53.7331 163.069 53.6347 163.069 53.5363C163.595 53.5526 164.12 53.5362 164.644 53.4871C165.551 53.1795 165.765 52.6055 165.284 51.7649C164.6 51.3107 163.943 50.8186 163.315 50.2887C162.792 49.2778 163.038 48.5561 164.053 48.1236Z" fill="#0E2342"/>
<path fill-rule="evenodd" clip-rule="evenodd" d="M76.4664 48.1236C76.9269 48.1073 77.386 48.1237 77.8442 48.1728C77.9265 48.2723 77.9593 48.3872 77.9426 48.5173C77.4821 48.5009 77.0229 48.5173 76.5648 48.5665C75.7675 48.9869 75.669 49.5446 76.2696 50.2395C76.904 50.6442 77.5109 51.0871 78.0902 51.568C78.6335 52.6946 78.3219 53.4655 77.1553 53.8807C76.5939 53.9483 76.0363 53.932 75.4823 53.8315C75.4823 53.7331 75.4823 53.6347 75.4823 53.5363C76.0082 53.5526 76.533 53.5362 77.0569 53.4871C77.9641 53.1795 78.1773 52.6055 77.6965 51.7649C77.0126 51.3107 76.3566 50.8186 75.7283 50.2887C75.2046 49.2778 75.4507 48.5561 76.4664 48.1236Z" fill="#0E2342"/>
<path fill-rule="evenodd" clip-rule="evenodd" d="M114.257 48.1236C114.717 48.1073 115.177 48.1237 115.634 48.1728C115.717 48.2723 115.75 48.3872 115.733 48.5173C115.272 48.5009 114.813 48.5173 114.355 48.5665C113.558 48.9869 113.46 49.5446 114.06 50.2395C114.695 50.6442 115.301 51.0871 115.881 51.568C116.424 52.6946 116.112 53.4655 114.946 53.8807C114.385 53.9483 113.827 53.932 113.273 53.8315C113.273 53.7331 113.273 53.6347 113.273 53.5363C113.798 53.5526 114.324 53.5362 114.847 53.4871C115.755 53.1795 115.968 52.6055 115.487 51.7649C114.803 51.3107 114.146 50.8186 113.519 50.2887C112.995 49.2778 113.241 48.5561 114.257 48.1236Z" fill="#0E2342"/>
<path fill-rule="evenodd" clip-rule="evenodd" d="M63.7712 48.3204C63.9223 48.1937 64.0862 48.1937 64.2633 48.3204C64.9319 49.9161 65.5716 51.5234 66.1823 53.1426C66.8329 51.5462 67.4562 49.9388 68.0521 48.3204C68.222 48.2145 68.4024 48.1981 68.5934 48.2712C67.8297 50.1098 67.1081 51.9632 66.4283 53.8315C66.2643 53.8315 66.1003 53.8315 65.9363 53.8315C65.2707 51.9648 64.5491 50.1278 63.7712 48.3204Z" fill="#0E2342"/>
<path fill-rule="evenodd" clip-rule="evenodd" d="M71.2505 48.1236C73.2863 47.9289 74.4016 48.8474 74.5966 50.8791C72.9235 50.8791 71.2505 50.8791 69.5775 50.8791C69.7796 53.0461 70.9277 53.8499 73.022 53.2902C73.5279 53.0303 73.9215 52.6531 74.2029 52.1585C74.4218 52.2156 74.5038 52.3468 74.4489 52.5521C73.3531 53.9864 71.9918 54.298 70.3648 53.487C69.3436 52.6217 68.9664 51.5227 69.2331 50.1902C69.5957 49.188 70.2683 48.4991 71.2505 48.1236ZM71.4473 48.5172C72.8941 48.4228 73.7798 49.0789 74.1045 50.4854C72.6283 50.4854 71.1521 50.4854 69.6759 50.4854C69.8868 49.4872 70.4773 48.8312 71.4473 48.5172Z" fill="#0E2342"/>
<path fill-rule="evenodd" clip-rule="evenodd" d="M108.844 48.1236C111.366 48.0383 112.532 49.252 112.338 51.7648C111.771 53.4457 110.607 54.151 108.844 53.8807C107.16 53.2199 106.487 51.9897 106.827 50.1902C107.19 49.188 107.862 48.4991 108.844 48.1236ZM109.041 48.5173C111.211 48.5241 112.146 49.6066 111.846 51.7649C111.389 53.101 110.454 53.6751 109.041 53.4871C107.589 52.9625 106.982 51.9291 107.22 50.3871C107.517 49.4506 108.124 48.8274 109.041 48.5173Z" fill="#0E2342"/>
<path fill-rule="evenodd" clip-rule="evenodd" d="M158.641 48.1236C161.163 48.0383 162.328 49.252 162.134 51.7648C161.567 53.4457 160.403 54.151 158.641 53.8807C156.957 53.2199 156.284 51.9897 156.623 50.1902C156.986 49.188 157.659 48.4991 158.641 48.1236ZM158.838 48.5173C161.008 48.5241 161.942 49.6066 161.642 51.7649C161.186 53.101 160.251 53.6751 158.838 53.4871C157.386 52.9625 156.779 51.9291 157.017 50.3871C157.314 49.4506 157.92 48.8274 158.838 48.5173Z" fill="#0E2342"/>
<path fill-rule="evenodd" clip-rule="evenodd" d="M123.015 45.9585C123.643 45.9383 124.266 45.9711 124.885 46.0569C124.885 46.1881 124.885 46.3194 124.885 46.4506C122.741 46.0379 121.249 46.8252 120.407 48.8125C119.913 51.2008 120.816 52.7589 123.114 53.4871C123.708 53.5557 124.299 53.5392 124.885 53.4379C124.885 53.569 124.885 53.7003 124.885 53.8315C123.034 54.2101 121.541 53.6524 120.407 52.1585C119.689 50.6792 119.689 49.203 120.407 47.7299C121.057 46.8071 121.926 46.2167 123.015 45.9585Z" fill="#0E2342"/>
<path fill-rule="evenodd" clip-rule="evenodd" d="M94.5743 48.1236C96.61 47.9289 97.7253 48.8474 97.9203 50.8791C96.2473 50.8791 94.5743 50.8791 92.9013 50.8791C93.1033 53.0461 94.2515 53.8499 96.3457 53.2902C96.8516 53.0303 97.2453 52.6531 97.5266 52.1585C97.7455 52.2156 97.8275 52.3468 97.7727 52.5521C96.6871 54.0231 95.3257 54.3347 93.6886 53.487C92.6673 52.6217 92.2901 51.5227 92.5568 50.1902C92.9195 49.188 93.592 48.4991 94.5743 48.1236ZM94.7711 48.5172C96.2179 48.4228 97.1036 49.0789 97.4282 50.4854C95.9521 50.4854 94.4759 50.4854 92.9997 50.4854C93.2106 49.4872 93.8011 48.8312 94.7711 48.5172Z" fill="#0E2342"/>
<path fill-rule="evenodd" clip-rule="evenodd" d="M127.641 48.1236C129.677 47.9289 130.792 48.8474 130.987 50.8791C129.314 50.8791 127.641 50.8791 125.968 50.8791C126.17 53.0461 127.318 53.8499 129.412 53.2902C129.918 53.0303 130.312 52.6531 130.593 52.1585C130.812 52.2156 130.894 52.3468 130.839 52.5521C129.754 54.0231 128.393 54.3347 126.755 53.487C125.734 52.6217 125.357 51.5227 125.623 50.1902C125.986 49.188 126.659 48.4991 127.641 48.1236ZM127.838 48.5172C129.284 48.4228 130.17 49.0789 130.495 50.4854C129.019 50.4854 127.542 50.4854 126.066 50.4854C126.277 49.4872 126.867 48.8312 127.838 48.5172Z" fill="#0E2342"/>
<path d="M56.3788 23.4313C58.5887 23.2975 60.7863 23.3956 62.9716 23.7262C64.4219 24.0624 65.4558 24.8991 66.0722 26.236C66.3267 26.9015 66.491 27.5904 66.5644 28.3024C66.6136 32.8292 66.6297 37.3564 66.6132 41.8834H61.496C61.5124 41.4884 61.4953 41.0941 61.4462 40.7018C59.4945 42.3055 57.3463 42.6177 55.0009 41.6373C53.1669 40.5797 52.133 38.9883 51.9003 36.8639C51.6756 35.3766 51.8889 33.9661 52.54 32.6324C53.4505 31.0012 54.8287 30.0173 56.6738 29.6803C56.7562 29.6466 56.7893 29.5806 56.7724 29.483C58.2139 29.3516 59.5914 29.5818 60.9052 30.1725C61.1511 28.6615 60.4953 27.8577 58.9374 27.7614C57.1686 27.6655 55.4129 27.7476 53.6718 28.0074C53.7028 27.1136 53.818 26.2276 54.0165 25.3502C54.0784 24.8185 54.1765 24.2931 54.3115 23.775C54.9917 23.6216 55.6813 23.5074 56.3788 23.4313ZM59.3798 33.567C58.3201 33.5671 57.4611 34.4263 57.4609 35.486C57.4609 36.5458 58.32 37.4048 59.3798 37.4049C60.4397 37.4049 61.2988 36.5458 61.2988 35.486C61.2986 34.4263 60.4396 33.567 59.3798 33.567Z" fill="black"/>
<path d="M155.185 23.4313C157.395 23.2975 159.592 23.3956 161.778 23.7262C163.228 24.0624 164.262 24.8991 164.878 26.236C165.133 26.9015 165.297 27.5904 165.37 28.3024C165.42 32.8292 165.436 37.3564 165.419 41.8834H160.302C160.318 41.4884 160.301 41.0941 160.252 40.7018C158.3 42.3055 156.152 42.6177 153.807 41.6373C151.973 40.5797 150.939 38.9883 150.706 36.8639C150.482 35.3766 150.695 33.9661 151.346 32.6324C152.256 31.0012 153.635 30.0173 155.48 29.6803C155.562 29.6466 155.595 29.5806 155.578 29.483C157.02 29.3516 158.397 29.5818 159.711 30.1725C159.957 28.6615 159.301 27.8577 157.743 27.7614C155.975 27.6655 154.219 27.7476 152.478 28.0074C152.509 27.1136 152.624 26.2276 152.823 25.3502C152.884 24.8185 152.983 24.2931 153.117 23.775C153.798 23.6216 154.487 23.5074 155.185 23.4313ZM158.186 33.567C157.126 33.5671 156.267 34.4263 156.267 35.486C156.267 36.5458 157.126 37.4049 158.186 37.4049C159.246 37.4049 160.105 36.5458 160.105 35.486C160.105 34.4263 159.246 33.567 158.186 33.567Z" fill="black"/>
<path d="M57.9534 21.5614C60.1633 21.4276 62.3609 21.5257 64.5462 21.8563C65.9965 22.1925 67.0304 23.0293 67.6468 24.3661C67.9013 25.0316 68.0656 25.7205 68.139 26.4325C68.1882 30.9593 68.2042 35.4865 68.1878 40.0135H63.0706C63.087 39.6185 63.0699 39.2242 63.0208 38.8319C61.0691 40.4356 58.9209 40.7479 56.5755 39.7675C54.7415 38.7098 53.7076 37.1184 53.4749 34.994C53.2502 33.5068 53.4635 32.0962 54.1146 30.7626C55.0251 29.1313 56.4033 28.1474 58.2484 27.8104C58.3308 27.7768 58.3639 27.7108 58.347 27.6132C59.7885 27.4818 61.166 27.7119 62.4798 28.3026C62.7257 26.7916 62.0699 25.9878 60.512 25.8915C58.7432 25.7956 56.9875 25.8778 55.2464 26.1376C55.2774 25.2437 55.3926 24.3577 55.5911 23.4803C55.653 22.9486 55.7511 22.4232 55.886 21.9052C56.5663 21.7517 57.2559 21.6376 57.9534 21.5614ZM60.9544 31.6971C59.8948 31.6972 59.0357 32.5565 59.0355 33.6161C59.0355 34.6759 59.8946 35.5349 60.9544 35.535C62.0143 35.535 62.8734 34.6759 62.8734 33.6161C62.8731 32.5564 62.0141 31.6971 60.9544 31.6971Z" fill="#186B92"/>
<path d="M156.759 21.5614C158.969 21.4276 161.167 21.5257 163.352 21.8563C164.802 22.1925 165.836 23.0293 166.453 24.3661C166.707 25.0316 166.872 25.7205 166.945 26.4325C166.994 30.9593 167.01 35.4865 166.994 40.0135H161.877C161.893 39.6185 161.876 39.2242 161.827 38.8319C159.875 40.4356 157.727 40.7479 155.381 39.7675C153.547 38.7098 152.514 37.1184 152.281 34.994C152.056 33.5068 152.269 32.0962 152.921 30.7626C153.831 29.1313 155.209 28.1474 157.054 27.8104C157.137 27.7768 157.17 27.7108 157.153 27.6132C158.594 27.4818 159.972 27.7119 161.286 28.3026C161.532 26.7916 160.876 25.9878 159.318 25.8915C157.549 25.7956 155.793 25.8778 154.052 26.1376C154.083 25.2437 154.199 24.3577 154.397 23.4803C154.459 22.9486 154.557 22.4232 154.692 21.9052C155.372 21.7517 156.062 21.6376 156.759 21.5614ZM159.76 31.6971C158.701 31.6972 157.842 32.5564 157.841 33.6161C157.841 34.6759 158.701 35.535 159.76 35.535C160.82 35.535 161.679 34.6759 161.679 33.6161C161.679 32.5564 160.82 31.6971 159.76 31.6971Z" fill="#186B92"/>
<path d="M77.451 14.4666C77.4182 17.1901 77.4502 19.9127 77.5486 22.6346C79.2013 21.5763 81.006 21.1989 82.9617 21.5027C86.0666 22.0147 88.2156 23.7373 89.408 26.6697C90.1847 29.1079 90.2497 31.5682 89.6043 34.0506C88.96 35.8672 87.9268 37.4089 86.5047 38.6756C86.4986 38.6224 86.4656 38.5901 86.406 38.5779C83.9876 40.2136 81.3301 40.7872 78.4344 40.2996C74.0322 39.3405 71.7199 36.6017 71.4969 32.0828C71.4477 26.8344 71.4306 21.5854 71.4471 16.3367V14.4666H77.451ZM80.5506 27.5067C78.7026 27.5067 77.2049 29.0044 77.2049 30.8524C77.2049 32.7003 78.7026 34.1981 80.5506 34.1981C82.3985 34.198 83.8963 32.7003 83.8963 30.8524C83.8963 29.0044 82.3985 27.5067 80.5506 27.5067Z" fill="#186B92"/>
<path d="M115.044 25.7845C117.906 21.8071 121.679 20.5769 126.361 22.0941C128.804 23.2576 130.445 25.1273 131.282 27.7034C130.702 28.1706 130.111 28.6131 129.511 29.0316C126.923 30.8511 124.33 32.6719 121.736 34.4935C121.617 34.5814 121.617 34.6634 121.736 34.7396C121.891 34.8191 122.056 34.8523 122.229 34.8382C124.229 35.2153 126.099 34.838 127.838 33.7064C128.503 33.2874 129.126 32.8117 129.707 32.2796C129.885 34.23 130.05 36.182 130.199 38.1351C130.19 38.2439 130.158 38.3422 130.101 38.43C129.589 38.7351 129.064 39.0144 128.526 39.2669C125.476 40.6058 122.359 40.786 119.178 39.8079C116.234 38.5704 114.445 36.3884 113.814 33.263C113.268 30.5999 113.678 28.1071 115.044 25.7845ZM124.59 27.014C124.163 26.5219 121.244 25.4893 119.571 28.2933C119.425 28.5393 118.751 30.1962 119.177 31.0491L124.59 27.014Z" fill="#186B92"/>
</svg>
